<?xml version="1.0" encoding="UTF-8" standalone="no"?>
<svg xmlns="http://www.w3.org/2000/svg" xmlns:xlink="http://www.w3.org/1999/xlink" style="isolation:isolate" viewBox="0 0 97 97" width="97pt" height="97pt"><defs><clipPath id="_clipPath_QsvyVZp87DoLTVPRxliZlYheZjjcmwuR"><rect width="97" height="97"/></clipPath></defs><g clip-path="url(#_clipPath_QsvyVZp87DoLTVPRxliZlYheZjjcmwuR)"><g><path d=" M 48.5 94.534 C 73.924 94.534 94.534 73.924 94.534 48.5 C 94.534 23.076 73.924 2.466 48.5 2.466 C 23.076 2.466 2.466 23.076 2.466 48.5 C 2.466 73.924 23.076 94.534 48.5 94.534 Z " fill="rgb(255,255,255)"/><linearGradient id="_lgradient_0" x1="0.49999802455781933" y1="1" x2="0.4999980245578194" y2="0" gradientTransform="matrix(69.051,0,0,69.051,14.522,13.975)" gradientUnits="userSpaceOnUse"><stop offset="0%" stop-opacity="1" style="stop-color:rgb(116,0,225)"/><stop offset="100%" stop-opacity="1" style="stop-color:rgb(64,0,191)"/></linearGradient><path d=" M 49.048 13.975 C 68.116 13.975 83.573 29.432 83.573 48.5 C 83.573 67.568 68.116 83.025 49.048 83.025 C 29.98 83.025 14.522 67.568 14.522 48.5 C 14.522 43.84 15.446 39.396 17.119 35.34 C 19.563 38.667 23.504 40.828 27.949 40.828 C 35.364 40.828 41.375 34.816 41.375 27.401 C 41.375 22.956 39.215 19.015 35.887 16.571 C 39.943 14.898 44.388 13.975 49.048 13.975 Z " fill-rule="evenodd" fill="url(#_lgradient_0)"/></g><g><ellipse vector-effect="non-scaling-stroke" cx="45.46511672414534" cy="29.97618064404306" rx="7.769442110361545" ry="7.754135880829725" fill="rgb(240,81,51)"/><ellipse vector-effect="non-scaling-stroke" cx="66.55097852720702" cy="51.085511999053395" rx="7.771482940965786" ry="7.787809585799771" fill="rgb(240,81,51)"/><ellipse vector-effect="non-scaling-stroke" cx="45.47328004656233" cy="72.22035373661721" rx="7.771482940965797" ry="7.779646263382773" fill="rgb(240,81,51)"/><rect x="41.792" y="1.282" width="6.387" height="55.73" transform="matrix(0.707,-0.707,0.707,0.707,-7.434,40.346)" fill="rgb(240,81,51)"/><rect x="42.518" y="35.265" width="6.376" height="36.049" transform="matrix(1,0,0,1,0,0)" fill="rgb(240,81,51)"/></g><path d=" M 48.5 0 C 21.714 0 0 21.714 0 48.5 C 0 75.286 21.714 97 48.5 97 C 75.286 97 97 75.286 97 48.5 C 97 21.714 75.286 0 48.5 0 Z  M 48.5 4.932 C 72.562 4.932 92.068 24.438 92.068 48.5 C 92.068 72.562 72.562 92.068 48.5 92.068 C 24.438 92.068 4.932 72.562 4.932 48.5 C 4.932 24.438 24.438 4.932 48.5 4.932 Z " fill="rgb(64,0,191)"/></g></svg>